<svg width="80" height="81" viewBox="0 0 80 81" fill="none" xmlns="http://www.w3.org/2000/svg">
<circle opacity="0.4" cx="40" cy="40.3938" r="40" fill="#D6EBE4"/>
<path d="M51.7862 31.5405C51.1052 30.8591 50.2966 30.3187 49.4066 29.9499C48.5167 29.5812 47.5628 29.3914 46.5995 29.3914C45.6362 29.3914 44.6823 29.5812 43.7924 29.9499C42.9024 30.3187 42.0938 30.8591 41.4128 31.5405L39.9995 32.9538L38.5862 31.5405C37.2106 30.1649 35.3449 29.3921 33.3995 29.3921C31.4541 29.3921 29.5884 30.1649 28.2128 31.5405C26.8373 32.916 26.0645 34.7817 26.0645 36.7271C26.0645 38.6725 26.8373 40.5382 28.2128 41.9138L29.6262 43.3271L39.9995 53.7005L50.3728 43.3271L51.7862 41.9138C52.4675 41.2328 53.008 40.4242 53.3767 39.5343C53.7455 38.6443 53.9353 37.6904 53.9353 36.7271C53.9353 35.7638 53.7455 34.8099 53.3767 33.92C53.008 33.03 52.4675 32.2215 51.7862 31.5405V31.5405Z" stroke="#1787FC" stroke-width="3" stroke-linecap="round" stroke-linejoin="round"/>
</svg>
