<svg width="32" height="32" viewBox="0 0 32 32" fill="none" xmlns="http://www.w3.org/2000/svg">
<path d="M12.0397 28.9199L15.1463 26.3066C15.613 25.9066 16.3863 25.9066 16.853 26.3066L19.9597 28.9199C20.6797 29.2799 21.5597 28.9199 21.8263 28.1466L22.413 26.3733C22.5597 25.9466 22.413 25.3199 22.093 24.9999L19.0663 21.9599C18.8397 21.7466 18.6663 21.3199 18.6663 21.0133V17.2133C18.6663 16.6533 19.0797 16.3866 19.5997 16.5999L26.1463 19.4266C27.173 19.8666 28.013 19.3199 28.013 18.1999V16.4799C28.013 15.5866 27.3463 14.5599 26.5197 14.2133L19.0663 10.9999C18.853 10.9066 18.6663 10.6266 18.6663 10.3866V6.3866C18.6663 5.13327 17.7463 3.65327 16.6263 3.07993C16.2263 2.87993 15.7597 2.87993 15.3597 3.07993C14.2397 3.65327 13.3197 5.1466 13.3197 6.39993V10.3999C13.3197 10.6399 13.133 10.9199 12.9197 11.0133L5.47966 14.2266C4.65299 14.5599 3.98633 15.5866 3.98633 16.4799V18.1999C3.98633 19.3199 4.82633 19.8666 5.85299 19.4266L12.3997 16.5999C12.9063 16.3733 13.333 16.6533 13.333 17.2133V21.0133C13.333 21.3199 13.1597 21.7466 12.9463 21.9599L9.91966 24.9999C9.59966 25.3199 9.453 25.9333 9.59966 26.3733L10.1863 28.1466C10.4263 28.9199 11.3063 29.2933 12.0397 28.9199Z" stroke="#292D32" stroke-width="2" stroke-linecap="round" stroke-linejoin="round"/>
</svg>
