<svg width="32" height="32" viewBox="0 0 32 32" fill="none" xmlns="http://www.w3.org/2000/svg">
<path d="M20.6807 3.77344H11.3207C8.00065 3.77344 7.26732 5.42677 6.84065 7.45344L5.33398 14.6668H26.6673L25.1607 7.45344C24.734 5.42677 24.0007 3.77344 20.6807 3.77344Z" stroke="#292D32" stroke-width="2" stroke-linecap="round" stroke-linejoin="round"/>
<path d="M29.3216 26.4267C29.4683 27.9867 28.2149 29.3334 26.6149 29.3334H24.1083C22.6683 29.3334 22.4683 28.7201 22.2149 27.9601L21.9483 27.1601C21.5749 26.0667 21.3349 25.3334 19.4149 25.3334H12.5883C10.6683 25.3334 10.3883 26.1601 10.0549 27.1601L9.78827 27.9601C9.53494 28.7201 9.33494 29.3334 7.89494 29.3334H5.38827C3.78827 29.3334 2.53494 27.9867 2.6816 26.4267L3.42827 18.3067C3.61494 16.3067 4.0016 14.6667 7.49494 14.6667H24.5083C28.0016 14.6667 28.3883 16.3067 28.5749 18.3067L29.3216 26.4267Z" stroke="#292D32" stroke-width="2" stroke-linecap="round" stroke-linejoin="round"/>
<path d="M5.33333 10.6667H4" stroke="#292D32" stroke-width="2" stroke-linecap="round" stroke-linejoin="round"/>
<path d="M27.9993 10.6667H26.666" stroke="#292D32" stroke-width="2" stroke-linecap="round" stroke-linejoin="round"/>
<path d="M16 4V6.66667" stroke="#292D32" stroke-width="2" stroke-linecap="round" stroke-linejoin="round"/>
<path d="M14 6.66675H18" stroke="#292D32" stroke-width="2" stroke-linecap="round" stroke-linejoin="round"/>
<path d="M8 20H12" stroke="#292D32" stroke-width="2" stroke-linecap="round" stroke-linejoin="round"/>
<path d="M20 20H24" stroke="#292D32" stroke-width="2" stroke-linecap="round" stroke-linejoin="round"/>
</svg>
