<svg width="32" height="32" viewBox="0 0 32 32" fill="none" xmlns="http://www.w3.org/2000/svg">
<path d="M16.667 29.3334H5.44029C3.89362 29.3334 2.62695 28.0934 2.62695 26.5734V6.78673C2.62695 3.29339 5.22695 1.70673 8.41362 3.26673L14.3336 6.17339C15.6136 6.80006 16.667 8.46673 16.667 9.88006V29.3334Z" stroke="#292D32" stroke-width="2" stroke-linecap="round" stroke-linejoin="round"/>
<path d="M29.2927 20.0802V25.1202C29.2927 28.0002 27.9593 29.3336 25.0793 29.3336H16.666V13.8936L17.2927 14.0269L23.2927 15.3736L25.9993 15.9736C27.7593 16.3602 29.1993 17.2669 29.2793 19.8269C29.2927 19.9069 29.2927 19.9869 29.2927 20.0802Z" stroke="#292D32" stroke-width="2" stroke-linecap="round" stroke-linejoin="round"/>
<path d="M7.33398 12H11.9607" stroke="#292D32" stroke-width="2" stroke-linecap="round" stroke-linejoin="round"/>
<path d="M7.33398 17.3333H11.9607" stroke="#292D32" stroke-width="2" stroke-linecap="round" stroke-linejoin="round"/>
<path d="M23.2949 15.3733V19.6666C23.2949 21.3199 21.9483 22.6666 20.2949 22.6666C18.6416 22.6666 17.2949 21.3199 17.2949 19.6666V14.0266L23.2949 15.3733Z" stroke="#292D32" stroke-width="2" stroke-linecap="round" stroke-linejoin="round"/>
<path d="M29.2816 19.8266C29.2016 21.4 27.8949 22.6666 26.2949 22.6666C24.6416 22.6666 23.2949 21.32 23.2949 19.6666V15.3733L26.0016 15.9733C27.7616 16.36 29.2016 17.2666 29.2816 19.8266Z" stroke="#292D32" stroke-width="2" stroke-linecap="round" stroke-linejoin="round"/>
</svg>
