<svg width="60" height="60" viewBox="0 0 60 60" fill="none" xmlns="http://www.w3.org/2000/svg">
<circle opacity="0.4" cx="30" cy="30" r="30" fill="#D1E7FE"/>
<path d="M40.8007 35.4001V24.6C40.8007 23.604 39.9967 22.8 39.0007 22.8H22.1887C21.1927 22.8 20.3887 23.604 20.3887 24.6V35.4001C20.3887 36.3961 21.1927 37.2001 22.1887 37.2001H39.0007C39.9967 37.2001 40.8007 36.3961 40.8007 35.4001ZM39.2287 24.468C39.6247 24.864 39.4087 25.272 39.1927 25.476L34.3207 29.94L39.0007 34.8121C39.1447 34.9801 39.2407 35.2441 39.0727 35.4241C38.9167 35.6161 38.5567 35.6041 38.4007 35.484L33.1567 31.008L30.5887 33.3481L28.0327 31.008L22.7887 35.484C22.6327 35.6041 22.2727 35.6161 22.1167 35.4241C21.9487 35.2441 22.0447 34.9801 22.1887 34.8121L26.8687 29.94L21.9967 25.476C21.7807 25.272 21.5647 24.864 21.9607 24.468C22.3567 24.072 22.7647 24.264 23.1007 24.552L30.5887 30.6L38.0887 24.552C38.4247 24.264 38.8327 24.072 39.2287 24.468Z" fill="#1787FC"/>
</svg>
