<svg width="60" height="60" viewBox="0 0 60 60" fill="none" xmlns="http://www.w3.org/2000/svg">
<circle opacity="0.4" cx="30" cy="30" r="30" fill="#D1E7FE"/>
<path d="M33.6294 32.4L31.1094 34.9C28.6094 33.47 26.5394 31.4 25.1094 28.9L27.6094 26.38C27.8394 26.14 27.9394 25.81 27.8794 25.48L27.1294 21.8C27.0394 21.34 26.6294 21 26.1494 21H21.9994C21.4394 21 20.9694 21.47 20.9994 22.03C21.1694 24.92 22.0494 27.63 23.4294 30C25.0094 32.73 27.2794 34.99 29.9994 36.57C32.3694 37.94 35.0794 38.83 37.9694 39C38.5294 39.03 38.9994 38.56 38.9994 38V33.85C38.9994 33.37 38.6594 32.96 38.1994 32.87L34.5294 32.14C34.3696 32.1052 34.2036 32.1108 34.0465 32.1562C33.8894 32.2015 33.746 32.2853 33.6294 32.4Z" fill="#1787FC"/>
</svg>
