<svg width="32" height="32" viewBox="0 0 32 32" fill="none" xmlns="http://www.w3.org/2000/svg">
<path d="M27.8792 14.8267C27.8792 21.3467 23.1458 27.4534 16.6792 29.2401C16.2392 29.3601 15.7591 29.3601 15.3191 29.2401C8.85247 27.4534 4.11914 21.3467 4.11914 14.8267V8.97338C4.11914 7.88005 4.94583 6.64005 5.97249 6.22672L13.3991 3.18676C15.0658 2.50676 16.9458 2.50676 18.6125 3.18676L26.0391 6.22672C27.0525 6.64005 27.8925 7.88005 27.8925 8.97338L27.8792 14.8267Z" stroke="#292D32" stroke-width="2" stroke-linecap="round" stroke-linejoin="round"/>
<path d="M15.9987 16.6668C17.4715 16.6668 18.6654 15.4729 18.6654 14.0002C18.6654 12.5274 17.4715 11.3335 15.9987 11.3335C14.5259 11.3335 13.332 12.5274 13.332 14.0002C13.332 15.4729 14.5259 16.6668 15.9987 16.6668Z" stroke="#292D32" stroke-width="2" stroke-miterlimit="10" stroke-linecap="round" stroke-linejoin="round"/>
<path d="M15.998 16.6667V20.6667" stroke="#292D32" stroke-width="2" stroke-miterlimit="10" stroke-linecap="round" stroke-linejoin="round"/>
</svg>
