<svg width="32" height="32" viewBox="0 0 32 32" fill="none" xmlns="http://www.w3.org/2000/svg">
<path d="M12.8007 26.6666H19.2007C24.534 26.6666 26.6673 24.5333 26.6673 19.1999V12.7999C26.6673 7.46659 24.534 5.33325 19.2007 5.33325H12.8007C7.46732 5.33325 5.33398 7.46659 5.33398 12.7999V19.1999C5.33398 24.5333 7.46732 26.6666 12.8007 26.6666Z" stroke="#292D32" stroke-width="2" stroke-linecap="round" stroke-linejoin="round"/>
<path d="M14.0007 22.6666H18.0007C21.334 22.6666 22.6673 21.3333 22.6673 17.9999V13.9999C22.6673 10.6666 21.334 9.33325 18.0007 9.33325H14.0007C10.6673 9.33325 9.33398 10.6666 9.33398 13.9999V17.9999C9.33398 21.3333 10.6673 22.6666 14.0007 22.6666Z" stroke="#292D32" stroke-width="2" stroke-linecap="round" stroke-linejoin="round"/>
<path d="M10.6797 5.33341V2.66675" stroke="#292D32" stroke-width="2" stroke-linecap="round" stroke-linejoin="round"/>
<path d="M16 5.33341V2.66675" stroke="#292D32" stroke-width="2" stroke-linecap="round" stroke-linejoin="round"/>
<path d="M21.334 5.33341V2.66675" stroke="#292D32" stroke-width="2" stroke-linecap="round" stroke-linejoin="round"/>
<path d="M26.666 10.6667H29.3327" stroke="#292D32" stroke-width="2" stroke-linecap="round" stroke-linejoin="round"/>
<path d="M26.666 16H29.3327" stroke="#292D32" stroke-width="2" stroke-linecap="round" stroke-linejoin="round"/>
<path d="M26.666 21.3333H29.3327" stroke="#292D32" stroke-width="2" stroke-linecap="round" stroke-linejoin="round"/>
<path d="M21.334 26.6667V29.3334" stroke="#292D32" stroke-width="2" stroke-linecap="round" stroke-linejoin="round"/>
<path d="M16.0137 26.6667V29.3334" stroke="#292D32" stroke-width="2" stroke-linecap="round" stroke-linejoin="round"/>
<path d="M10.6797 26.6667V29.3334" stroke="#292D32" stroke-width="2" stroke-linecap="round" stroke-linejoin="round"/>
<path d="M2.66602 10.6667H5.33268" stroke="#292D32" stroke-width="2" stroke-linecap="round" stroke-linejoin="round"/>
<path d="M2.66602 16H5.33268" stroke="#292D32" stroke-width="2" stroke-linecap="round" stroke-linejoin="round"/>
<path d="M2.66602 21.3333H5.33268" stroke="#292D32" stroke-width="2" stroke-linecap="round" stroke-linejoin="round"/>
<path d="M16.0003 12.9333L14.7469 15.12C14.4669 15.6 14.6936 16 15.2536 16H16.7469C17.3069 16 17.5336 16.4 17.2536 16.88L16.0003 19.0667" stroke="#292D32" stroke-width="2" stroke-linecap="round" stroke-linejoin="round"/>
</svg>
