<svg width="32" height="32" viewBox="0 0 32 32" fill="none" xmlns="http://www.w3.org/2000/svg">
<path d="M29.334 8.66675H21.334" stroke="#292D32" stroke-width="2" stroke-miterlimit="10" stroke-linecap="round" stroke-linejoin="round"/>
<path d="M7.99935 8.66675H2.66602" stroke="#292D32" stroke-width="2" stroke-miterlimit="10" stroke-linecap="round" stroke-linejoin="round"/>
<path d="M13.3327 13.3333C15.91 13.3333 17.9993 11.244 17.9993 8.66667C17.9993 6.08934 15.91 4 13.3327 4C10.7554 4 8.66602 6.08934 8.66602 8.66667C8.66602 11.244 10.7554 13.3333 13.3327 13.3333Z" stroke="#292D32" stroke-width="2" stroke-miterlimit="10" stroke-linecap="round" stroke-linejoin="round"/>
<path d="M29.3333 23.3333H24" stroke="#292D32" stroke-width="2" stroke-miterlimit="10" stroke-linecap="round" stroke-linejoin="round"/>
<path d="M10.666 23.3333H2.66602" stroke="#292D32" stroke-width="2" stroke-miterlimit="10" stroke-linecap="round" stroke-linejoin="round"/>
<path d="M18.6667 28.0001C21.244 28.0001 23.3333 25.9107 23.3333 23.3334C23.3333 20.7561 21.244 18.6667 18.6667 18.6667C16.0893 18.6667 14 20.7561 14 23.3334C14 25.9107 16.0893 28.0001 18.6667 28.0001Z" stroke="#292D32" stroke-width="2" stroke-miterlimit="10" stroke-linecap="round" stroke-linejoin="round"/>
</svg>
