<svg width="32" height="32" viewBox="0 0 32 32" fill="none" xmlns="http://www.w3.org/2000/svg">
<path d="M27.2257 16.4932C28.3857 16.9598 29.1057 18.3332 28.839 19.5465L28.2923 22.0265C27.3457 26.2932 23.999 29.3332 19.1723 29.3332H12.8257C7.999 29.3332 4.65234 26.2932 3.70567 22.0265L3.159 19.5465C2.89233 18.3332 3.61232 16.9598 4.77232 16.4932L6.66567 15.7331L14.0124 12.7865C15.2924 12.2798 16.7057 12.2798 17.9857 12.7865L25.3323 15.7331L27.2257 16.4932Z" stroke="#292D32" stroke-width="2" stroke-linecap="round" stroke-linejoin="round"/>
<path d="M16 29.3333V13.3333" stroke="#292D32" stroke-width="2" stroke-linecap="round" stroke-linejoin="round"/>
<path d="M25.3327 10.6667V15.7334L17.986 12.7867C16.706 12.2801 15.2927 12.2801 14.0127 12.7867L6.66602 15.7334V10.6667C6.66602 8.46675 8.46602 6.66675 10.666 6.66675H21.3327C23.5327 6.66675 25.3327 8.46675 25.3327 10.6667Z" stroke="#292D32" stroke-width="2" stroke-linecap="round" stroke-linejoin="round"/>
<path d="M19.3327 6.66675H12.666V4.00008C12.666 3.26675 13.266 2.66675 13.9993 2.66675H17.9993C18.7327 2.66675 19.3327 3.26675 19.3327 4.00008V6.66675Z" stroke="#292D32" stroke-width="2" stroke-linecap="round" stroke-linejoin="round"/>
</svg>
