<svg width="32" height="32" viewBox="0 0 32 32" fill="none" xmlns="http://www.w3.org/2000/svg">
<path d="M24 19.9999V25.3332C24 27.5332 22.2 29.3332 20 29.3332H12C9.8 29.3332 8 27.5332 8 25.3332V18.6399L13.1867 18.6666C14.16 18.6666 15.12 18.8932 16 19.3332C16.88 19.7732 17.84 19.9999 18.8267 19.9999H24Z" stroke="#292D32" stroke-width="2" stroke-linecap="round" stroke-linejoin="round"/>
<path d="M24 14.4401V20.0001H18.8267C17.84 20.0001 16.88 19.7734 16 19.3334C15.12 18.8934 14.16 18.6667 13.1867 18.6667L8 18.6401V14.4401C8 13.8268 8.3467 12.9868 8.7867 12.5468L11.6134 9.72007C11.8534 9.48007 12 9.13341 12 8.78674V6.66675H20V8.78674C20 9.13341 20.1466 9.48007 20.3866 9.72007L23.2133 12.5468C23.6533 12.9868 24 13.8268 24 14.4401Z" stroke="#292D32" stroke-width="2" stroke-linecap="round" stroke-linejoin="round"/>
<path d="M24 21.3333V20" stroke="#292D32" stroke-width="2" stroke-linecap="round" stroke-linejoin="round"/>
<path d="M8 19.9732V18.6399" stroke="#292D32" stroke-width="2" stroke-linecap="round" stroke-linejoin="round"/>
<path d="M19.3327 6.66675H12.666C11.5593 6.66675 10.666 5.76008 10.666 4.66675C10.666 3.57341 11.5593 2.66675 12.666 2.66675H19.3327C20.4393 2.66675 21.3327 3.57341 21.3327 4.66675C21.3327 5.76008 20.4393 6.66675 19.3327 6.66675Z" stroke="#292D32" stroke-width="2" stroke-linecap="round" stroke-linejoin="round"/>
</svg>
